<svg width="48" height="48" viewBox="0 0 48 48" fill="none" xmlns="http://www.w3.org/2000/svg">
<g clip-path="url(#clip0_3628_3320)">
<path d="M24 48C37.2548 48 48 37.2548 48 24C48 10.7452 37.2548 0 24 0C10.7452 0 0 10.7452 0 24C0 37.2548 10.7452 48 24 48Z" fill="#039BE5"/>
<path d="M12.2149 22.0312L35.3549 13.1092C36.4289 12.7212 37.3669 13.3712 37.0189 14.9952L37.0209 14.9932L33.0809 33.5552C32.7889 34.8712 32.0069 35.1912 30.9129 34.5712L24.9129 30.1492L22.0189 32.9372C21.6989 33.2572 21.4289 33.5272 20.8089 33.5272L21.2349 27.4212L32.3549 17.3752C32.8389 16.9492 32.2469 16.7092 31.6089 17.1332L17.8669 25.7852L11.9429 23.9372C10.6569 23.5292 10.6289 22.6512 12.2149 22.0312Z" fill="white"/>
</g>
<defs>
<clipPath id="clip0_3628_3320">
<rect width="48" height="48" fill="white"/>
</clipPath>
</defs>
</svg>
